#!OML:ASF F:\VICON\USERDATA\INSTALL\rory3\rory3.ASF
:FULLY-SPECIFIED
:DEGREES
120
root 0.6069375120242264 17.77399127879298 64.33445869774539 -2.2014652705209583 -0.601034747391014 -1.9633968535078705
lfemur 2.8358865230505863 -3.618431452821979 -19.42976410971348
ltibia 32.3762741167577
lfoot 11.327024141402303 -16.129243281580216
ltoes -9.872556337499539
rfemur -19.652098751633098 3.4646273227100006 26.793961747301797
rtibia 29.925432302061523
rfoot -10.873669652588623 -8.97394732422727
rtoes 2.0852395025844714
lowerback 11.62657843222549 -0.7739164945575426 0.5276958839672672
upperback 0.13272923695181194 -0.768843526056805 2.415575636301662
thorax -5.886936332083145 -0.4422335890268751 1.9145893424625613
lowerneck -16.246224421866224 -2.988392815357552 -3.4376270008229852
upperneck 22.086739230108016 -3.6241380660583813 1.5741581604679553
head 9.638367133744195 -1.7852049371976588 0.7364492207149318
lclavicle -2.0286980038144813e-15 -7.131832188341369e-16
lhumerus -28.31211499314729 1.311869067878915 80.3014540874219
lradius 30.966808522619285
lwrist 9.545068322798198
lhand -29.874642134753497 19.12129393673277
lfingers 7.12502
lthumb -3.4181243416375424 49.041329650001884
rclavicle -2.028204625138239e-15 -7.128491750427629e-16
rhumerus -29.924351213138763 -21.53444146188523 -74.39912222383704
rradius 20.981554515774558
rwrist 6.496227094137963
rhand -17.395360071698104 22.471977699240583
rfingers 7.12502
rthumb 8.315809439650282 -7.168896361202969
121
root 0.6010087403713271 17.790219229464103 64.40757750790873 -2.1997413079242447 -0.6710234168631068 -2.441374477858065
lfemur 1.0932413168144972 -3.5527163833629043 -18.55353157904626
ltibia 36.71648629080744
lfoot 13.363350009082803 -16.783223029421862
ltoes -5.349130975852217
rfemur -18.172479088280983 3.7247725990874416 27.33142516221494
rtibia 28.890018356472403
rfoot -11.64363080020776 -8.126945320239127
rtoes 3.047042497990578
lowerback 11.636266740165546 -0.761669789483239 0.9306425995613319
upperback 0.14747465620362665 -0.6666093539374751 2.4346393408058664
thorax -5.9485118723978765 -0.3948011048034947 1.6445237521005103
lowerneck -16.17244361127048 -3.0055960639594668 -3.4572048328449223
upperneck 22.067688565705822 -3.653937269508254 1.621845829271571
head 9.634510016423079 -1.793960090642838 0.7441382810783684
lclavicle -2.0283999178034898e-15 -7.129926739754048e-16
lhumerus -28.759799829146512 1.497399089756661 80.59094447917039
lradius 31.49367915810015
lwrist 10.324576236548218
lhand -30.00718029783307 18.895505305503836
lfingers 7.12502
lthumb -3.514782699996652 48.76188223728337
rclavicle -2.0285578280639255e-15 -7.130747241786108e-16
rhumerus -29.629971165056784 -21.149688176570177 -74.71805211999782
rradius 21.39069858855993
rwrist 6.014587101242711
rhand -17.33971769871332 22.397122426977642
rfingers 7.12502
rthumb 8.337303994937008 -7.2464669178082985
122
root 0.5962208659432109 17.812082749285107 64.35998154102094 -2.115671559002494 -0.8939302439725098 -3.003562110355034
lfemur -0.9294297488220771 -3.37418454099939 -17.64926724686106
ltibia 40.4084872585511
lfoot 10.357457665348706 -14.989731302443005
ltoes -6.191340352018325
rfemur -16.568863344977434 4.053409334598232 28.03887259132122
rtibia 27.76751860938733
rfoot -12.185318729398919 -7.40275947973413
rtoes 3.031605729730697
lowerback 11.60177147658805 -0.6638687764995144 1.328548751427621
upperback 0.14478397103313798 -0.4677744685666196 2.4650940972778814
thorax -5.969461180972137 -0.2973019912493811 1.3991656328361486
lowerneck -16.12830149375644 -3.0208953187470513 -3.4659737477184884
upperneck 22.08082964050146 -3.6831022185486404 1.6361201266263492
head 9.64663174107929 -1.8029263977198018 0.7421466102281
lclavicle -2.0286729059986515e-15 -7.13166482676837e-16
lhumerus -29.26477339925408 1.539627761882425 80.94047839170818
lradius 31.704850815687966
lwrist 10.884547177235884
lhand -30.16935578225314 18.588334185562836
lfingers 7.12502
lthumb -3.6295893179769494 48.504407088959496
rclavicle -2.0286353691698854e-15 -7.131242228252715e-16
rhumerus -29.2529482220766 -20.71664315858816 -75.14200194876453
rradius 21.780244706974674
rwrist 5.739965726237534
rhand -17.238761555143398 22.35444592258045
rfingers 7.12502
rthumb 8.369234347554503 -7.133382496576825
123
root 0.5981155609093942 17.84277908352341 64.36063275854373 -1.95925032930508 -1.0283120631143288 -3.1992689127041363
lfemur -3.195013490993907 -3.2686324186213938 -17.125429296148646
ltibia 43.125034865142744
lfoot 6.592860008378498 -11.503645424106502
ltoes -5.71242505709025
rfemur -14.821747450516431 4.246875823364235 28.366057573011652
rtibia 26.42822087153337
rfoot -12.444474573734661 -6.764991802124694
rtoes 2.3972768479522695
lowerback 11.471502328228484 -0.5723449485769432 1.5446586029751899
upperback 0.10898983194053083 -0.32495737731515767 2.437137911537393
thorax -5.946678188047094 -0.22249237652416842 1.2504159653681095
lowerneck -16.105619752416974 -3.031130169892194 -3.4645371883167817
upperneck 22.1244573839509 -3.695320066404451 1.6253916517323936
head 9.663778071888347 -1.8076900405667788 0.738903840129704
lclavicle -2.0281193949712508e-15 -7.128131723951035e-16
lhumerus -29.867056462328076 1.5977964901484727 81.24245769189925
lradius 31.60761315184009
lwrist 11.022780860432363
lhand -30.23081284222351 18.64759118153814
lfingers 7.12502
lthumb -3.651352712985131 48.56857948686095
rclavicle -2.0291667478540885e-15 -7.134635214765646e-16
rhumerus -28.90587543333537 -20.499677872097717 -75.44931664268361
rradius 21.976195962355998
rwrist 5.66363925608788
rhand -17.150976496961338 22.28318733786394
rfingers 7.12502
rthumb 8.392650268020601 -7.096298386467149
124
root 0.6016323024285957 17.82018089818845 64.51482109263978 -1.818026542233956 -1.3120020617878847 -3.332955156146756
lfemur -5.417905405893233 -3.005166601865775 -16.66554213223606
ltibia 44.96975340289841
lfoot 3.5437393251506837 -8.165809545319116
ltoes -4.66772768502314
rfemur -13.23290045863689 4.375965374693763 28.690883670282062
rtibia 25.852830962467152
rfoot -12.569689984371198 -6.133262602927365
rtoes 1.8646082799050436
lowerback 11.360098029790963 -0.42316180351321575 1.66261287855844
upperback 0.09080918953767958 -0.11056338818519112 2.379149094368023
thorax -5.9368564973780265 -0.12167756525857837 1.1810749737455148
lowerneck -16.092169359214168 -3.0412054742607273 -3.464863121648893
upperneck 22.1618954142382 -3.707367696604835 1.61355983667857
head 9.682889244571866 -1.811278068160682 0.7378212428756173
lclavicle -2.0284944553982643e-15 -7.130521790854958e-16
lhumerus -30.585474640295136 1.634282423243107 81.52909996883538
lradius 31.33127057827434
lwrist 11.411718730352122
lhand -30.364847335986237 17.906435690194325
lfingers 7.12502
lthumb -3.648543722412358 48.21750765716402
rclavicle -2.029471939792542e-15 -7.136583886463645e-16
rhumerus -28.706312667165264 -20.423069401589473 -75.64824648455573
rradius 22.104405802100377
rwrist 5.745450574757568
rhand -17.108301200954163 22.198645702664972
rfingers 7.12502
rthumb 8.371072180463198 -7.095557973735669
